<?xml version="1.0" encoding="utf-8"?>
<!-- Generator: Adobe Illustrator 15.1.0, SVG Export Plug-In  -->
<!DOCTYPE svg PUBLIC "-//W3C//DTD SVG 1.1//EN" "http://www.w3.org/Graphics/SVG/1.1/DTD/svg11.dtd" [
	<!ENTITY ns_flows "http://ns.adobe.com/Flows/1.0/">
]>
<svg version="1.1"
	 xmlns="http://www.w3.org/2000/svg" xmlns:xlink="http://www.w3.org/1999/xlink" xmlns:a="http://ns.adobe.com/AdobeSVGViewerExtensions/3.0/"
	 x="0px" y="0px" width="784px" height="784px" viewBox="0 0 784 784" overflow="visible" enable-background="new 0 0 784 784"
	 xml:space="preserve">
<defs>
</defs>
<rect fill="none" width="784" height="784"/>
<polygon fill="#06A551" points="696.654,154.402 677.473,349.971 755.18,313.091 774.363,117.516 "/>
<polygon fill="#06A551" points="88.385,629.592 107.566,434.018 29.853,470.904 10.673,666.479 "/>
<path fill="#06A551" d="M753.567,330.675L8.937,684.125l-2.075,21.52c-0.046,0.695-0.079,1.412-0.098,2.137l-0.033,0.816
	l0.022,0.721c0.011,0.682,0.062,1.357,0.108,2.031l0.053,0.861l-1.195,0.697l1.253-0.225l0.046,0.354
	c0.074,0.586,0.185,1.188,0.28,1.797l0.362,1.855c0.098,0.43,0.214,0.863,0.334,1.291l0.5,1.799l-1.028,0.887l1.195-0.408
	c0.16,0.465,0.338,0.92,0.506,1.379l0.24,0.643l0.608,1.477c0.07,0.191,0.139,0.381,0.23,0.557c0.058,0.125,0.127,0.232,0.196,0.346
	c0.098,0.154,0.194,0.316,0.28,0.49c0.518,1.018,1.076,1.998,1.685,2.965l0.194,0.299c0.276,0.426,0.553,0.834,0.841,1.246
	c0.787,1.127,1.459,1.984,2.159,2.814c0.507,0.57,0.823,0.916,1.149,1.266c0.874,0.924,1.627,1.643,2.414,2.34l-0.563,1.193
	l0.827-0.957l0.816,0.715c1.085,0.898,2.161,1.666,3.379,2.455c0.38,0.234,0.626,0.391,0.879,0.535l-0.362,1.264l0.65-1.086
	c1.074,0.643,2.195,1.229,3.338,1.758l0.471,0.225c1.621,0.723,3.092,1.252,4.62,1.699c1.852,0.541,3.821,0.943,5.873,1.203
	l0.402,0.057c0.166,0.031,0.333,0.057,0.506,0.074c1.12,0.113,2.24,0.156,3.355,0.16h0.138c5.694,0,10.958-1.193,15.906-3.545
	L749.7,414.164L753.567,330.675z"/>
<path fill="#06A551" d="M31.462,453.312L776.091,99.864l2.073-21.405c0.06-0.758,0.1-1.529,0.111-2.31c0-0.472,0.01-0.931,0-1.379
	c-0.012-0.736-0.06-1.46-0.111-2.19c-0.06-0.684-0.097-1.106-0.145-1.531c-0.079-0.653-0.183-1.293-0.297-1.939
	c-0.104-0.572-0.208-1.155-0.344-1.733c-0.116-0.551-0.265-1.095-0.414-1.634c-0.186-0.678-0.368-1.313-0.588-1.948
	c-0.159-0.488-0.35-0.977-0.527-1.466c-0.264-0.663-0.529-1.33-0.823-1.97l-0.152-0.377l1.021-0.83l-1.229,0.382
	c-0.081-0.117-0.148-0.226-0.208-0.359c-0.745-1.5-1.482-2.798-2.252-3.958l-0.25-0.388c-0.737-1.106-1.629-2.241-2.703-3.464
	c-0.323-0.377-0.648-0.742-0.989-1.101c-0.943-1-1.859-1.892-2.82-2.707l-0.289-0.273c-1.229-1.035-2.429-1.899-3.859-2.818
	c-0.283-0.175-0.562-0.344-0.847-0.512c-1.298-0.78-2.503-1.41-3.675-1.947l-0.301-0.146c-1.679-0.743-3.158-1.276-4.656-1.718
	l-0.928-0.235c-1.157-0.305-2.339-0.553-3.548-0.753c-0.476-0.078-0.947-0.151-1.429-0.213l-0.876-0.129
	c-1.089-0.105-2.165-0.146-3.239-0.158l-0.391-0.029c-0.214,0-0.426,0.018-0.646,0.035l-0.585,0.035
	c-0.816,0.026-1.633,0.054-2.43,0.129c-0.323,0.037-0.637,0.088-0.974,0.139l-0.551,0.08c-0.753,0.106-1.493,0.218-2.229,0.37
	c-0.396,0.083-0.793,0.184-1.189,0.285c-1.049,0.258-1.81,0.468-2.559,0.71c-0.448,0.141-0.9,0.296-1.349,0.459
	c-0.678,0.247-1.328,0.522-1.981,0.808L35.307,369.957L31.462,453.312z"/>
<path fill="#06A551" d="M778.165,705.547l-0.016-0.367l-2.058-21.055L496.228,551.307l-85.993,40.812L726.26,742.082
	c0.884,0.41,1.804,0.787,2.745,1.121c0.368,0.131,0.735,0.252,1.1,0.371c0.853,0.275,1.717,0.525,2.591,0.732
	c0.591,0.15,0.89,0.225,1.189,0.293c0.868,0.17,1.752,0.309,2.636,0.43l0.466,0.07c0.225,0.033,0.456,0.07,0.674,0.092
	c1.068,0.109,2.148,0.16,3.224,0.178l0.82,0.012c1.094-0.012,2.208-0.055,3.322-0.168l0.866-0.131
	c0.489-0.064,0.984-0.139,1.479-0.219c1.188-0.195,2.353-0.443,3.492-0.742l0.953-0.242c1.509-0.443,2.978-0.971,4.375-1.584
	l0.614-0.293c1.159-0.529,2.339-1.156,3.506-1.857c0.333-0.195,0.668-0.396,0.999-0.604c1.422-0.914,2.62-1.77,3.655-2.637
	l0.513-0.465c0.97-0.834,1.901-1.742,2.785-2.684c0.341-0.355,0.674-0.725,1.001-1.098c1.074-1.242,1.965-2.381,2.71-3.482
	l1.29,0.334l-1.059-0.703c0.77-1.166,1.507-2.471,2.264-3.98l0.541-1.143c0.304-0.664,0.575-1.33,0.839-2.002
	c0.186-0.488,0.362-0.965,0.527-1.453c0.22-0.639,0.402-1.287,0.582-1.943c0.155-0.545,0.296-1.086,0.42-1.637
	c0.133-0.582,0.24-1.164,0.344-1.764c0.114-0.633,0.218-1.27,0.297-1.904c0.048-0.426,0.085-0.852,0.115-1.283
	c0.081-0.99,0.129-1.713,0.141-2.439c0.01-0.453,0-0.908-0.006-1.367C778.256,707.096,778.224,706.316,778.165,705.547"/>
<polygon fill="#06A551" points="104.648,320.217 88.385,154.418 10.673,117.545 33.841,353.821 "/>
<path fill="#06A551" d="M6.874,78.471l0.019,0.361l2.057,21.067l77.92,36.976l1.804,0.839l200.235,95.032l85.981-40.798
	L59.401,42.196c-0.115-0.06-0.23-0.106-0.351-0.146l-0.431-0.178c-0.805-0.365-1.633-0.698-2.46-1.001
	c-0.472-0.175-0.93-0.329-1.413-0.482c-0.701-0.224-1.425-0.422-2.16-0.606c-0.627-0.159-1.115-0.281-1.609-0.388
	c-0.586-0.124-1.202-0.212-1.805-0.298L48.5,38.99c-0.426-0.066-0.845-0.128-1.271-0.172c-0.391-0.04-0.793-0.052-1.194-0.068
	l-1.264-0.072c-0.387-0.027-0.759-0.057-1.15-0.057c-0.299,0.03-0.426,0.04-0.562,0.04c-1.012,0.017-2.036,0.046-3.058,0.146
	l-0.84,0.13c-0.505,0.06-0.977,0.135-1.459,0.212c-1.223,0.201-2.38,0.449-3.517,0.741l-0.988,0.259
	c-1.494,0.437-2.953,0.964-4.355,1.571l-0.604,0.292c-1.189,0.555-2.373,1.173-3.512,1.856c-0.332,0.198-0.672,0.394-0.993,0.607
	c-1.431,0.916-2.626,1.775-3.66,2.628l-0.529,0.489c-0.966,0.836-1.891,1.729-2.77,2.66c-0.34,0.365-0.679,0.735-1,1.118
	c-1.075,1.229-1.941,2.348-2.679,3.431l-0.182,0.286c-0.851,1.285-1.575,2.572-2.34,4.099l-0.563,1.174
	c-0.293,0.641-0.558,1.302-0.821,1.965c-0.185,0.489-0.373,0.977-0.528,1.477c-0.22,0.624-0.402,1.267-0.575,1.907
	C7.925,66.3,7.776,66.84,7.644,67.387c-0.121,0.565-0.224,1.142-0.327,1.726c-0.114,0.652-0.225,1.293-0.299,1.94
	c-0.058,0.494-0.104,1.008-0.145,1.52c-0.052,0.735-0.109,1.465-0.12,2.198c-0.012,0.453,0,0.913,0.011,1.373
	C6.776,76.924,6.816,77.701,6.874,78.471"/>
<polygon fill="#06A551" points="680.397,463.879 696.654,629.6 774.363,666.482 751.197,430.275 "/>
<path display="none" fill="none" stroke="#EC008C" stroke-width="0.492" stroke-miterlimit="10" d="M777.645,607.331
	c0,93.699-75.958,169.657-169.657,169.657H176.015c-93.699,0-169.657-75.958-169.657-169.657V176.663
	c0-93.699,75.958-169.657,169.657-169.657h431.973c93.699,0,169.657,75.958,169.657,169.657V607.331z"/>
<line display="none" fill="none" stroke="#EC008C" stroke-width="0.492" stroke-miterlimit="10" x1="6.683" y1="777.314" x2="777.32" y2="6.68"/>
<line display="none" fill="none" stroke="#EC008C" stroke-width="0.492" stroke-miterlimit="10" x1="6.683" y1="6.68" x2="777.32" y2="777.314"/>
<line display="none" fill="none" stroke="#EC008C" stroke-width="0.492" stroke-miterlimit="10" x1="56.39" y1="6.843" x2="56.39" y2="777.151"/>
<line display="none" fill="none" stroke="#EC008C" stroke-width="0.492" stroke-miterlimit="10" x1="392.003" y1="6.843" x2="392.003" y2="777.151"/>
<line display="none" fill="none" stroke="#EC008C" stroke-width="0.492" stroke-miterlimit="10" x1="727.61" y1="6.843" x2="727.61" y2="777.151"/>
<line display="none" fill="none" stroke="#EC008C" stroke-width="0.492" stroke-miterlimit="10" x1="249.32" y1="6.843" x2="249.32" y2="777.151"/>
<line display="none" fill="none" stroke="#EC008C" stroke-width="0.492" stroke-miterlimit="10" x1="534.685" y1="6.843" x2="534.685" y2="777.151"/>
<line display="none" fill="none" stroke="#EC008C" stroke-width="0.492" stroke-miterlimit="10" x1="777.156" y1="56.387" x2="6.847" y2="56.387"/>
<line display="none" fill="none" stroke="#EC008C" stroke-width="0.492" stroke-miterlimit="10" x1="777.156" y1="391.999" x2="6.846" y2="391.999"/>
<line display="none" fill="none" stroke="#EC008C" stroke-width="0.492" stroke-miterlimit="10" x1="777.156" y1="727.607" x2="6.846" y2="727.607"/>
<line display="none" fill="none" stroke="#EC008C" stroke-width="0.492" stroke-miterlimit="10" x1="777.156" y1="249.318" x2="6.846" y2="249.318"/>
<line display="none" fill="none" stroke="#EC008C" stroke-width="0.492" stroke-miterlimit="10" x1="777.156" y1="534.681" x2="6.846" y2="534.681"/>
<circle display="none" fill="none" stroke="#EC008C" stroke-width="0.492" stroke-miterlimit="10" cx="392" cy="391.997" r="142.384"/>
<circle display="none" fill="none" stroke="#EC008C" stroke-width="0.492" stroke-miterlimit="10" cx="392" cy="391.997" r="201.631"/>
<path display="none" fill="none" stroke="#EC008C" stroke-width="0.492" stroke-miterlimit="10" d="M694.449,391.997
	c0,167.038-135.409,302.446-302.447,302.446c-167.04,0-302.448-135.408-302.448-302.446c0-167.039,135.408-302.447,302.448-302.447
	C559.04,89.55,694.449,224.958,694.449,391.997z"/>
</svg>
